:FULLY-SPECIFIED
:FORCE-ALL-JOINTS-BE-3DOF
:DEGREES
2446
root 2.43268 14.7525 -23.3609 -157.744 79.6933 -157.017
lfemur -36.1042 19.7315 -13.482
ltibia 72.932 -0 0
lfoot -25.8713 15.729 -0.194623
ltoes -39.6183 0 0
rfemur -39.8125 -22.5182 11.0749
rtibia 61.0289 -0 0
rfoot 9.6569 -2.1031 0.863028
rtoes 1.02655 -0 0
lowerback 15.8025 1.09583 -4.10928
upperback -0.934517 0.986516 2.72797
thorax -9.85716 0.791877 5.09061
lowerneck 3.55523 -14.2377 -16.1843
upperneck 0.902228 -19.7994 14.1767
head 2.46483 -9.9903 6.02455
lclavicle 1.08586e-14 -2.66371e-14 0
lhumerus -40.3193 -39.8191 109.238
lradius 103.688 -0 0
lwrist 64.1651 0 0
lhand 0.332294 41.7568 0.0883041
lfingers 7.12502 -0 0
lthumb 25.7876 68.632 -0.294055
rclavicle 1.08586e-14 -2.66371e-14 0
rhumerus 18.6789 13.5227 -70.5828
rradius 113.208 -0 0
rwrist 5.57157 0 0
rhand -31.4987 -44.5713 0.449229
rfingers 7.12502 -0 0
rthumb -4.75962 -74.1151 0.423604
2447
root 2.49834 14.7452 -23.3785 -157.41 79.9722 -156.464
lfemur -35.583 19.9486 -13.4479
ltibia 73.1024 -0 0
lfoot -26.1844 15.9561 -0.182833
ltoes -39.4302 0 0
rfemur -40.0224 -22.4809 10.6094
rtibia 59.7152 -0 0
rfoot 10.3141 -1.58323 0.830269
rtoes 1.60211 -0 0
lowerback 15.8065 0.949983 -4.22336
upperback -0.937127 0.781363 2.82816
thorax -9.85056 0.703366 5.31684
lowerneck 3.49475 -14.1583 -16.1494
upperneck 1.13228 -19.6964 14.0017
head 2.53078 -9.9359 5.96751
lclavicle 1.08586e-14 -2.66371e-14 0
lhumerus -41.0038 -40.4463 109.638
lradius 104.285 -0 0
lwrist 65.3957 0 0
lhand 1.57011 41.7869 0.0840135
lfingers 7.12502 -0 0
lthumb 26.9752 68.5282 -0.279687
rclavicle 1.08586e-14 -2.66371e-14 0
rhumerus 16.9204 11.8748 -71.1731
rradius 112.888 -0 0
rwrist 8.39568 0 0
rhand -32.3095 -44.812 0.428558
rfingers 7.12502 -0 0
rthumb -5.54229 -74.3529 0.404483
2448
root 2.56401 14.7379 -23.3962 -157.05 80.2526 -155.891
lfemur -35.0738 20.1614 -13.4119
ltibia 73.277 -0 0
lfoot -26.4929 16.1813 -0.170133
ltoes -39.2439 0 0
rfemur -40.236 -22.4496 10.1543
rtibia 58.4357 -0 0
rfoot 10.9465 -1.0712 0.791832
rtoes 2.1678 -0 0
lowerback 15.8109 0.806675 -4.33552
upperback -0.940511 0.579685 2.92621
thorax -9.84503 0.616343 5.53877
lowerneck 3.43526 -14.0792 -16.1131
upperneck 1.3584 -19.5931 13.8285
head 2.59562 -9.88165 5.91086
lclavicle 1.08586e-14 -2.66371e-14 0
lhumerus -41.6856 -41.0586 110.042
lradius 104.872 -0 0
lwrist 66.6 0 0
lhand 2.78028 41.8165 0.0791559
lfingers 7.12502 -0 0
lthumb 28.1363 68.4276 -0.263484
rclavicle 1.08586e-14 -2.66371e-14 0
rhumerus 15.222 10.2358 -71.6951
rradius 112.557 -0 0
rwrist 11.1704 0 0
rhand -33.1028 -45.0491 0.40509
rfingers 7.12502 -0 0
rthumb -6.30814 -74.5872 0.382713
2449
root 2.62967 14.7306 -23.4139 -156.667 80.5314 -155.303
lfemur -34.5785 20.3698 -13.3739
ltibia 73.4549 -0 0
lfoot -26.7966 16.4037 -0.156668
ltoes -39.0608 0 0
rfemur -40.4527 -22.4258 9.71084
rtibia 57.1959 -0 0
rfoot 11.5518 -0.567963 0.748094
rtoes 2.72175 -0 0
lowerback 15.8158 0.666412 -4.44559
upperback -0.944659 0.382158 3.0218
thorax -9.84057 0.531117 5.75577
lowerneck 3.37742 -14.0013 -16.0763
upperneck 1.57931 -19.4909 13.6586
head 2.65903 -9.82825 5.85507
lclavicle 1.08586e-14 -2.66371e-14 0
lhumerus -42.3644 -41.6525 110.45
lradius 105.445 -0 0
lwrist 67.7765 0 0
lhand 3.95915 41.8456 0.0737923
lfingers 7.12502 -0 0
lthumb 29.2674 68.3305 -0.245651
rclavicle 1.08586e-14 -2.66371e-14 0
rhumerus 13.5863 8.6125 -72.1511
rradius 112.218 -0 0
rwrist 13.8864 0 0
rhand -33.8765 -45.2822 0.379085
rfingers 7.12502 -0 0
rthumb -7.05512 -74.8174 0.358536
2450
root 2.69534 14.7234 -23.4316 -156.267 80.8051 -154.705
lfemur -34.0986 20.5732 -13.3338
ltibia 73.6357 -0 0
lfoot -27.0952 16.6225 -0.14259
ltoes -38.8824 0 0
rfemur -40.6719 -22.4107 9.28059
rtibia 56.0006 -0 0
rfoot 12.1275 -0.0744336 0.699481
rtoes 3.26213 -0 0
lowerback 15.8209 0.529699 -4.55338
upperback -0.949558 0.189458 3.1146
thorax -9.83717 0.447995 5.96721
lowerneck 3.32187 -13.9257 -16.0396
upperneck 1.79379 -19.3912 13.4933
head 2.72068 -9.77639 5.80063
lclavicle 1.08586e-14 -2.66371e-14 0
lhumerus -43.0399 -42.2242 110.861
lradius 106.003 -0 0
lwrist 68.9238 0 0
lhand 5.10308 41.8739 0.0679907
lfingers 7.12502 -0 0
lthumb 30.3649 68.2374 -0.226415
rclavicle 1.08586e-14 -2.66371e-14 0
rhumerus 12.016 7.01165 -72.5438
rradius 111.869 -0 0
rwrist 16.534 0 0
rhand -34.6286 -45.5104 0.35084
rfingers 7.12502 -0 0
rthumb -7.78118 -75.0429 0.332218
2451
root 2.76101 14.7161 -23.4493 -155.855 81.0706 -154.105
lfemur -33.6359 20.7715 -13.2916
ltibia 73.8185 -0 0
lfoot -27.3883 16.8369 -0.128062
ltoes -38.7098 0 0
rfemur -40.8929 -22.4055 8.86493
rtibia 54.8553 -0 0
rfoot 12.6712 0.408477 0.646464
rtoes 3.78708 -0 0
lowerback 15.8262 0.397043 -4.6587
upperback -0.95519 0.00226296 3.20427
thorax -9.83482 0.367286 6.17245
lowerneck 3.26925 -13.8533 -16.0039
upperneck 2.00058 -19.2953 13.334
head 2.78024 -9.72679 5.74799
lclavicle 1.08586e-14 -2.66371e-14 0
lhumerus -43.7113 -42.7702 111.273
lradius 106.544 -0 0
lwrist 70.0402 0 0
lhand 6.20843 41.9015 0.061826
lfingers 7.12502 -0 0
lthumb 31.4255 68.1486 -0.20602
rclavicle 1.08586e-14 -2.66371e-14 0
rhumerus 10.514 5.43979 -72.876
rradius 111.511 -0 0
rwrist 19.1039 0 0
rhand -35.3569 -45.7331 0.320677
rfingers 7.12502 -0 0
rthumb -8.48428 -75.2631 0.304055
2452
root 2.82667 14.7088 -23.467 -155.441 81.3245 -153.511
lfemur -33.1921 20.9643 -13.2473
ltibia 74.0029 -0 0
lfoot -27.6758 17.0459 -0.113256
ltoes -38.5445 0 0
rfemur -41.1151 -22.4116 8.46529
rtibia 53.7649 -0 0
rfoot 13.1804 0.879875 0.589557
rtoes 4.29477 -0 0
lowerback 15.8317 0.268949 -4.76136
upperback -0.961535 -0.178752 3.29049
thorax -9.83349 0.289298 6.37086
lowerneck 3.2202 -13.7851 -15.9699
upperneck 2.1985 -19.2048 13.1821
head 2.8374 -9.68014 5.69764
lclavicle 1.08586e-14 -2.66371e-14 0
lhumerus -44.3779 -43.2869 111.684
lradius 107.063 -0 0
lwrist 71.1242 0 0
lhand 7.27156 41.9282 0.0553791
lfingers 7.12502 -0 0
lthumb 32.4455 68.0645 -0.18473
rclavicle 1.08586e-14 -2.66371e-14 0
rhumerus 9.08324 3.90333 -73.1509
rradius 111.146 -0 0
rwrist 21.5866 0 0
rhand -36.0593 -45.9497 0.288946
rfingers 7.12502 -0 0
rthumb -9.16237 -75.4774 0.274367
2453
root 2.89234 14.7015 -23.4846 -155.033 81.5638 -152.933
lfemur -32.7687 21.1511 -13.2008
ltibia 74.188 -0 0
lfoot -27.9573 17.2489 -0.0983549
ltoes -38.3878 0 0
rfemur -41.3377 -22.4301 8.08313
rtibia 52.7347 -0 0
rfoot 13.6529 1.33888 0.529307
rtoes 4.78334 -0 0
lowerback 15.8372 0.145925 -4.86118
upperback -0.968568 -0.352912 3.37293
thorax -9.83317 0.214337 6.5618
lowerneck 3.17535 -13.7221 -15.9383
upperneck 2.38633 -19.1209 13.039
head 2.89184 -9.63714 5.65002
lclavicle 1.08586e-14 -2.66371e-14 0
lhumerus -45.0387 -43.7709 112.093
lradius 107.56 -0 0
lwrist 72.1744 0 0
lhand 8.28883 41.954 0.0487362
lfingers 7.12502 -0 0
lthumb 33.4216 67.9853 -0.162817
rclavicle 1.08586e-14 -2.66371e-14 0
rhumerus 7.72731 2.40851 -73.372
rradius 110.773 -0 0
rwrist 23.9726 0 0
rhand -36.7337 -46.1595 0.256021
rfingers 7.12502 -0 0
rthumb -9.81343 -75.6851 0.243494
2454
root 2.95801 14.6942 -23.5023 -154.643 81.7854 -152.385
lfemur -32.3676 21.3318 -13.1522
ltibia 74.3733 -0 0
lfoot -28.2325 17.4449 -0.0835486
ltoes -38.2411 0 0
rfemur -41.5602 -22.4623 7.71989
rtibia 51.7698 -0 0
rfoot 14.0861 1.78463 0.466293
rtoes 5.25094 -0 0
lowerback 15.8427 0.0284742 -4.95796
upperback -0.976265 -0.519541 3.45125
thorax -9.83383 0.142711 6.74464
lowerneck 3.13534 -13.6651 -15.9099
upperneck 2.56289 -19.0452 12.906
head 2.94322 -9.59851 5.60561
lclavicle 1.08586e-14 -2.66371e-14 0
lhumerus -45.6923 -44.2185 112.499
lradius 108.032 -0 0
lwrist 73.1893 0 0
lhand 9.25659 41.9786 0.0419879
lfingers 7.12502 -0 0
lthumb 34.3502 67.9114 -0.140567
rclavicle 1.08586e-14 -2.66371e-14 0
rhumerus 6.44994 0.96137 -73.5428
rradius 110.393 -0 0
rwrist 26.2524 0 0
rhand -37.378 -46.3619 0.222297
rfingers 7.12502 -0 0
rthumb -10.4354 -75.8856 0.211799
2455
root 3.02367 14.687 -23.52 -154.286 81.986 -151.881
lfemur -31.9905 21.506 -13.1014
ltibia 74.558 -0 0
lfoot -28.5012 17.6331 -0.0690349
ltoes -38.1058 0 0
rfemur -41.7818 -22.5094 7.37702
rtibia 50.8754 -0 0
rfoot 14.4777 2.21628 0.401118
rtoes 5.69573 -0 0
lowerback 15.848 -0.0828973 -5.05153
upperback -0.984595 -0.677962 3.52512
thorax -9.83545 0.0747255 6.91875
lowerneck 3.1008 -13.6152 -15.8854
upperneck 2.727 -18.9792 12.7845
head 2.99125 -9.56495 5.56487
lclavicle 1.08586e-14 -2.66371e-14 0
lhumerus -46.3374 -44.6263 112.898
lradius 108.476 -0 0
lwrist 74.1672 0 0
lhand 10.1712 42.0021 0.0352288
lfingers 7.12502 -0 0
lthumb 35.2279 67.8431 -0.118272
rclavicle 1.08586e-14 -2.66371e-14 0
rhumerus 5.25528 -0.432244 -73.6671
rradius 110.007 -0 0
rwrist 28.4167 0 0
rhand -37.99 -46.5563 0.188188
rfingers 7.12502 -0 0
rthumb -11.0263 -76.0785 0.179659
